<?xml version="1.0" standalone="no"?>
<!DOCTYPE svg PUBLIC "-//W3C//DTD SVG 20010904//EN"
 "http://www.w3.org/TR/2001/REC-SVG-20010904/DTD/svg10.dtd">
<svg version="1.0" xmlns="http://www.w3.org/2000/svg"
 width="326.000000pt" height="396.000000pt" viewBox="0 0 326.000000 396.000000"
 preserveAspectRatio="xMidYMid meet">

<g transform="translate(0.000000,396.000000) scale(0.100000,-0.100000)"
fill="#000000" stroke="none">
<path d="M1650 3886 c-48 -21 -53 -27 -34 -40 15 -11 13 -12 -15 -8 -17 2 -37
-1 -45 -7 -8 -7 -42 -16 -76 -22 -57 -9 -153 -49 -235 -97 -16 -9 -55 -31 -85
-48 -221 -125 -393 -384 -464 -695 -14 -63 -32 -175 -40 -249 -8 -74 -20 -179
-26 -232 -35 -328 23 -678 162 -967 40 -85 130 -191 161 -191 8 0 22 -10 33
-21 10 -12 45 -39 77 -61 31 -21 57 -45 57 -52 0 -21 -63 -98 -123 -149 -39
-34 -64 -47 -86 -47 -42 0 -131 -20 -163 -36 -15 -8 -42 -27 -60 -43 -20 -17
-51 -31 -78 -35 -25 -4 -67 -11 -93 -15 -59 -9 -68 -22 -61 -81 6 -44 5 -46
-30 -63 -20 -9 -56 -17 -79 -17 -23 0 -73 -12 -112 -26 -38 -14 -101 -29 -140
-33 l-70 -6 -3 -312 -2 -313 857 1 858 0 -75 23 c-149 46 -246 95 -379 195
-92 68 -241 209 -241 226 0 8 -8 16 -18 19 -21 7 -124 112 -143 147 -17 31
-22 62 -9 54 5 -3 7 0 4 9 -4 11 3 17 23 21 44 10 58 21 57 45 -1 22 0 22 13
4 11 -15 15 -16 22 -5 5 7 13 11 19 7 6 -3 14 -1 18 5 4 8 9 7 15 -2 7 -11 9
-10 9 4 0 10 8 17 18 17 10 0 28 9 40 20 14 13 23 16 28 9 3 -6 19 -9 35 -7
21 3 29 0 29 -11 1 -14 2 -14 10 0 5 9 21 20 34 23 17 4 23 11 20 23 -3 10 1
39 9 64 8 27 11 54 6 67 -5 14 -4 22 2 22 6 0 8 4 5 9 -9 15 25 22 41 9 12
-10 17 -9 27 3 9 12 17 13 46 4 67 -22 100 -37 100 -46 0 -5 4 -9 10 -9 5 0
31 -13 57 -29 47 -28 52 -29 186 -30 76 0 143 -4 150 -8 26 -16 52 -12 74 11
13 14 23 29 23 34 0 14 55 28 56 15 0 -5 4 -23 8 -41 5 -20 4 -38 -3 -46 -7
-9 -7 -16 1 -24 8 -8 8 -12 2 -12 -7 0 -8 -16 -4 -43 3 -24 3 -52 -1 -63 -3
-10 -3 -24 1 -29 5 -6 18 -66 29 -135 11 -69 30 -157 42 -195 18 -57 20 -84
15 -149 -3 -43 -12 -89 -20 -102 -9 -12 -53 -41 -98 -63 l-83 -41 658 0 657 0
0 435 c0 277 -4 435 -10 435 -5 0 -19 18 -30 40 -12 23 -27 43 -35 47 -8 3
-12 9 -9 15 3 5 -1 17 -9 26 -8 9 -26 40 -41 69 -14 28 -30 54 -36 58 -6 4 -8
11 -5 16 4 5 1 9 -4 9 -6 0 -11 6 -11 14 0 8 -4 17 -10 21 -5 3 -8 -10 -5 -32
3 -33 3 -35 -7 -16 -6 13 -17 23 -25 23 -7 0 -13 5 -13 11 0 18 -52 132 -67
149 -12 13 -13 12 -8 -5 5 -14 2 -13 -9 5 -18 29 -20 44 -6 35 6 -3 7 1 4 9
-3 9 -10 13 -15 10 -5 -3 -9 1 -9 8 0 7 -16 44 -35 82 -20 38 -33 71 -30 74 3
3 -3 14 -12 24 -14 15 -14 21 -3 31 7 6 11 8 8 2 -3 -5 4 -19 15 -30 l20 -20
-12 23 c-17 32 1 27 24 -7 24 -37 32 -33 11 7 -8 16 -12 33 -8 36 3 4 -1 4
-10 1 -9 -4 -19 -2 -23 4 -3 6 1 11 9 11 20 0 20 -4 -3 88 -21 83 -36 256 -22
248 13 -8 32 43 25 70 -3 13 -4 24 0 24 14 0 87 -84 82 -96 -3 -8 0 -11 10 -7
11 4 14 15 11 37 -6 42 -17 67 -27 61 -5 -3 -6 3 -4 13 4 12 -21 43 -78 100
-45 45 -77 82 -71 82 6 0 24 -14 40 -30 l28 -30 6 37 c6 38 6 38 8 -9 0 -27 5
-48 10 -48 23 0 14 274 -11 330 -6 14 -12 36 -13 50 -1 14 -10 42 -19 63 -9
21 -14 42 -11 47 3 5 -4 32 -15 60 -11 28 -20 59 -20 70 0 10 -7 26 -16 34 -8
9 -13 20 -9 25 7 12 -54 143 -72 154 -7 4 -13 12 -13 16 0 11 -75 135 -98 162
-9 11 -54 59 -99 107 -65 70 -78 88 -65 94 14 5 14 7 2 8 -8 2 -18 2 -22 1 -5
0 -7 3 -5 7 1 5 -28 35 -65 67 -38 31 -68 59 -68 61 0 3 25 -14 55 -36 30 -22
55 -36 55 -31 0 5 -15 20 -32 32 -18 13 -49 38 -68 57 -34 33 -34 34 -5 16 93
-57 314 -294 370 -398 12 -23 42 -43 50 -34 9 9 -44 118 -58 119 -7 1 -18 1
-24 0 -7 -1 -13 3 -13 9 0 6 4 9 9 6 5 -3 12 2 15 11 4 10 4 14 0 10 -4 -4
-26 21 -49 56 -24 34 -54 73 -69 86 -14 14 -26 30 -26 36 0 12 -54 65 -67 66
-5 0 -30 27 -57 59 -45 55 -88 88 -236 182 -105 67 -257 127 -282 112 -7 -4
-31 -7 -55 -5 -26 1 -43 -2 -43 -8 0 -15 -16 -14 -32 2 -10 10 -19 11 -38 3z
m15 -16 c-3 -5 -12 -10 -18 -10 -7 0 -6 4 3 10 19 12 23 12 15 0z m725 -665
c17 -21 30 -41 30 -44 0 -7 -70 65 -121 124 l-34 40 48 -42 c26 -22 61 -58 77
-78z m-404 -101 c49 -33 124 -108 124 -123 0 -6 4 -11 8 -11 10 0 82 -96 82
-111 0 -6 12 -23 28 -37 28 -28 82 -103 82 -115 0 -4 8 -15 18 -25 22 -24 62
-71 62 -75 0 -1 -43 -3 -95 -3 -109 -2 -185 -25 -185 -55 0 -11 7 -19 18 -20
9 -1 76 -2 147 -4 157 -3 165 -5 165 -22 0 -8 -4 -11 -10 -8 -5 3 -7 0 -4 -8
8 -21 -24 -49 -44 -39 -20 9 -43 9 -58 0 -6 -4 -41 -8 -77 -10 -61 -2 -72 -7
-68 -31 0 -4 -2 -6 -6 -6 -20 3 -31 -2 -37 -17 -5 -14 -4 -15 9 -4 22 18 19 9
-10 -30 -23 -31 -25 -58 -4 -44 6 3 13 -3 16 -15 5 -21 37 -33 118 -45 36 -5
34 -3 -18 15 -63 23 -65 27 -21 34 16 3 44 8 62 11 24 4 44 -1 69 -16 25 -15
44 -19 71 -14 20 3 49 6 64 7 15 1 24 6 21 12 -3 5 5 -1 18 -14 13 -13 25 -34
26 -45 0 -12 8 -46 17 -76 20 -70 21 -184 0 -280 -39 -187 -47 -216 -66 -254
-19 -37 -88 -124 -88 -111 0 3 -15 -11 -32 -32 -18 -21 -36 -40 -39 -43 -3 -3
-19 -27 -34 -55 -16 -27 -39 -63 -52 -80 -13 -16 -27 -35 -31 -40 -78 -107
-98 -127 -158 -156 -53 -26 -71 -30 -116 -27 -69 6 -166 36 -198 60 -91 69
-241 215 -268 261 -10 16 -22 25 -30 22 -10 -4 -12 0 -8 10 3 9 2 14 -3 11 -5
-3 -14 1 -21 9 -7 8 -9 15 -6 15 4 0 1 6 -6 14 -7 7 -19 11 -25 9 -7 -3 -13 2
-13 11 0 9 -5 16 -12 16 -6 0 -9 3 -6 6 3 3 -12 24 -34 47 -70 75 -129 220
-95 233 12 4 17 120 6 139 -9 16 -5 138 5 154 6 10 5 16 -2 19 -15 5 -16 32
-1 32 8 0 10 13 6 37 -4 22 -2 42 5 51 9 10 9 15 -1 22 -8 5 -10 13 -5 21 4 7
9 33 10 57 1 24 6 47 11 51 17 11 24 44 11 53 -9 5 -6 8 10 8 13 0 21 4 18 9
-10 15 19 61 39 62 53 3 111 9 121 13 6 2 28 1 48 -4 20 -4 39 -4 42 1 3 5 63
6 134 3 87 -3 130 -1 131 6 1 5 2 16 3 23 2 18 -29 37 -61 37 -15 0 -90 2
-166 5 -80 3 -145 1 -156 -4 -14 -8 -18 -6 -18 7 0 9 4 22 8 28 13 16 20 116
8 109 -5 -4 -9 -1 -9 4 0 6 5 11 10 11 6 0 10 5 10 12 0 19 50 78 66 78 8 0
12 5 9 11 -11 17 26 50 49 44 12 -3 15 -2 9 1 -19 8 -16 24 5 24 14 0 15 2 2
10 -13 8 -12 10 4 10 11 0 16 5 13 14 -3 8 1 17 9 20 8 3 14 12 14 21 0 8 5
15 10 15 5 0 9 5 7 12 -1 6 16 15 40 19 23 4 51 12 61 18 37 20 105 39 118 34
8 -3 14 -1 14 5 0 6 8 8 19 5 10 -3 22 0 25 6 10 16 19 14 62 -15z m342 -731
c-2 -16 -10 -29 -19 -31 -12 -2 -15 4 -11 28 6 39 35 42 30 3z m529 -35 c-2
-13 -4 -3 -4 22 0 25 2 35 4 23 2 -13 2 -33 0 -45z m-1877 -438 c0 -5 -4 -10
-10 -10 -5 0 -10 5 -10 10 0 6 5 10 10 10 6 0 10 -4 10 -10z m1880 -245 c0 -5
-5 -3 -10 5 -5 8 -10 20 -10 25 0 6 5 3 10 -5 5 -8 10 -19 10 -25z m-52 -26
c-3 -8 -7 -3 -11 10 -4 17 -3 21 5 13 5 -5 8 -16 6 -23z m-13 -172 c5 -13 3
-16 -8 -11 -10 3 -16 24 -20 62 -6 74 6 93 14 22 4 -30 10 -63 14 -73z m-1945
-698 c0 -5 -4 -7 -10 -4 -5 3 -7 0 -4 -8 3 -8 -2 -17 -10 -20 -19 -7 -20 -3
-6 24 11 20 30 26 30 8z m60 -14 c-7 -9 -18 -14 -24 -12 -6 2 -16 -3 -23 -12
-6 -9 -14 -13 -18 -10 -10 11 24 39 40 33 8 -4 15 -1 15 5 0 6 5 11 11 11 8 0
7 -5 -1 -15z m1472 -346 c1 -169 -2 -232 -11 -223 -3 3 -7 60 -8 127 -2 123 5
262 14 254 2 -3 4 -74 5 -158z m35 -361 c-3 -8 -6 -5 -6 6 -1 11 2 17 5 13 3
-3 4 -12 1 -19z"/>
<path d="M1515 2451 c-10 -1 -33 -12 -52 -22 -19 -11 -32 -15 -28 -9 8 14 5
13 -37 -9 -21 -10 -35 -21 -32 -24 3 -3 -1 -5 -8 -4 -68 3 -76 -15 -19 -40 22
-10 45 -26 51 -38 6 -11 23 -22 38 -24 52 -7 94 -4 100 6 4 5 26 9 50 8 24 -1
42 3 42 9 0 7 3 7 8 -1 4 -6 27 -10 51 -10 28 1 46 -3 48 -10 3 -7 -2 -13 -11
-13 -9 0 -16 -4 -16 -8 0 -5 23 -2 50 7 54 16 59 27 33 69 -17 26 -17 27 1 12
18 -14 19 -14 7 8 -10 20 -16 23 -36 22 -3 -1 -13 6 -21 14 -8 9 -33 21 -54
27 -22 7 -40 16 -40 21 0 5 -4 6 -10 3 -5 -3 -15 -3 -22 1 -12 8 -65 11 -93 5z
m120 -71 c3 -5 -1 -10 -10 -10 -9 0 -13 5 -10 10 3 6 8 10 10 10 2 0 7 -4 10
-10z m67 -7 c30 -27 23 -53 -13 -53 -24 0 -30 3 -25 16 3 9 6 24 6 35 0 23 8
24 32 2z"/>
<path d="M1811 1992 c-56 -54 -60 -70 -33 -121 12 -24 29 -37 56 -47 22 -7 43
-11 48 -8 4 3 33 -8 63 -24 62 -33 84 -32 128 5 16 12 39 23 51 23 13 0 31 9
41 20 23 26 20 25 -44 -5 -55 -27 -75 -26 -121 3 -13 8 -47 17 -75 19 -76 6
-84 8 -105 26 -24 20 -26 65 -5 73 8 4 15 12 15 20 0 8 9 14 20 14 24 0 38 26
23 41 -7 7 -27 -5 -62 -39z"/>
<path d="M2280 1865 c0 -4 16 -31 36 -61 32 -48 54 -62 54 -33 0 6 -5 7 -12 3
-8 -5 -9 -2 -4 12 4 10 4 15 0 12 -3 -4 -22 11 -40 33 -19 23 -34 38 -34 34z"/>
<path d="M1260 1844 c0 -8 5 -12 10 -9 6 3 10 10 10 16 0 5 -4 9 -10 9 -5 0
-10 -7 -10 -16z"/>
<path d="M1613 1707 c-35 -15 -36 -37 -6 -71 91 -100 134 -139 184 -166 72
-38 89 -38 50 1 -45 44 -40 53 22 43 28 -5 90 -9 137 -9 73 0 85 -3 88 -17 2
-12 -5 -21 -21 -27 -36 -14 -47 -36 -14 -27 34 8 96 48 95 61 -2 31 4 45 17
45 8 0 15 5 15 11 0 6 12 23 28 39 62 65 73 80 68 89 -4 6 -67 9 -154 7 -89
-2 -168 2 -199 9 -29 7 -53 10 -53 6 0 -3 -13 -6 -29 -6 -16 0 -28 2 -26 5 2
3 -26 4 -61 3 -35 -1 -76 2 -91 6 -16 5 -38 4 -50 -2z m182 -57 c5 -8 11 -7
21 1 19 15 64 3 64 -18 0 -15 1 -15 18 0 21 19 62 12 62 -11 0 -13 2 -13 19 2
10 9 31 16 47 16 16 0 49 3 73 6 52 7 67 -7 44 -43 -10 -15 -29 -25 -54 -29
-22 -4 -39 -11 -39 -16 0 -16 -50 -29 -71 -18 -13 8 -19 7 -19 0 0 -7 -17 -10
-42 -8 -34 2 -43 7 -42 21 2 13 -3 16 -18 12 -10 -4 -30 0 -44 10 -13 9 -29
13 -34 10 -6 -3 -10 -1 -10 4 0 6 -6 11 -13 11 -7 0 -14 13 -15 30 -2 26 1 30
22 30 14 0 28 -5 31 -10z"/>
<path d="M1385 1621 c-3 -5 0 -13 5 -16 6 -4 15 -18 20 -31 5 -13 14 -24 18
-24 5 0 1 18 -10 40 -22 43 -24 45 -33 31z"/>
<path d="M1430 1529 c0 -5 5 -7 10 -4 6 3 10 8 10 11 0 2 -4 4 -10 4 -5 0 -10
-5 -10 -11z"/>
<path d="M1449 1492 c5 -10 18 -25 27 -33 16 -13 16 -12 0 19 -9 17 -21 32
-27 32 -6 0 -6 -6 0 -18z"/>
<path d="M1886 1432 c-3 -5 9 -9 27 -9 26 -1 28 1 12 7 -27 11 -33 12 -39 2z"/>
<path d="M1998 1433 c-10 -2 -18 -8 -18 -13 0 -4 9 -6 20 -3 11 3 20 9 20 14
0 5 -1 8 -2 8 -2 -1 -11 -3 -20 -6z"/>
<path d="M2660 3127 c0 -2 11 -18 25 -37 20 -27 22 -36 12 -49 -7 -8 -7 -12
-1 -8 11 6 34 -32 34 -58 0 -8 4 -16 9 -19 5 -4 5 9 0 29 -5 19 -13 50 -18 69
-4 18 -11 39 -15 45 -7 11 -46 35 -46 28z"/>
<path d="M2781 2850 c0 -8 4 -22 9 -30 12 -18 12 -2 0 25 -6 13 -9 15 -9 5z"/>
<path d="M2861 1904 c0 -11 3 -14 6 -6 3 7 2 16 -1 19 -3 4 -6 -2 -5 -13z"/>
</g>
</svg>
